<mxfile host="app.diagrams.net" modified="2023-05-17T03:53:58.263Z" agent="Mozilla/5.0 (Windows NT 10.0; Win64; x64) AppleWebKit/537.36 (KHTML, like Gecko) Chrome/113.0.0.0 Safari/537.36" etag="XS5HJvEyLQ_x7HLvJ5aH" version="21.1.6" type="github">
  <diagram id="C5RBs43oDa-KdzZeNtuy" name="Page-1">
    <mxGraphModel dx="2514" dy="899" grid="1" gridSize="10" guides="1" tooltips="1" connect="1" arrows="1" fold="1" page="1" pageScale="1" pageWidth="827" pageHeight="1169" math="0" shadow="0">
      <root>
        <mxCell id="WIyWlLk6GJQsqaUBKTNV-0" />
        <mxCell id="WIyWlLk6GJQsqaUBKTNV-1" parent="WIyWlLk6GJQsqaUBKTNV-0" />
        <mxCell id="zLzfCKwRgQz-2UD7bMT8-159" value="Bid" style="rounded=0;whiteSpace=wrap;html=1;fillColor=#d5e8d4;strokeColor=#82b366;verticalAlign=top;align=left;fontSize=39;" vertex="1" parent="WIyWlLk6GJQsqaUBKTNV-1">
          <mxGeometry x="-440" y="1525" width="2070" height="1095" as="geometry" />
        </mxCell>
        <mxCell id="zLzfCKwRgQz-2UD7bMT8-51" value="&lt;font style=&quot;font-size: 31px;&quot;&gt;BUY NOW&amp;nbsp;&lt;/font&gt;" style="rounded=0;whiteSpace=wrap;html=1;dashed=1;fillColor=#d5e8d4;strokeColor=#82b366;verticalAlign=top;align=left;" vertex="1" parent="WIyWlLk6GJQsqaUBKTNV-1">
          <mxGeometry x="-380" y="60" width="1950" height="1240" as="geometry" />
        </mxCell>
        <mxCell id="zLzfCKwRgQz-2UD7bMT8-12" style="edgeStyle=orthogonalEdgeStyle;rounded=0;orthogonalLoop=1;jettySize=auto;html=1;" edge="1" parent="WIyWlLk6GJQsqaUBKTNV-1" source="zLzfCKwRgQz-2UD7bMT8-0" target="zLzfCKwRgQz-2UD7bMT8-11">
          <mxGeometry relative="1" as="geometry" />
        </mxCell>
        <mxCell id="zLzfCKwRgQz-2UD7bMT8-39" style="edgeStyle=orthogonalEdgeStyle;rounded=0;orthogonalLoop=1;jettySize=auto;html=1;" edge="1" parent="WIyWlLk6GJQsqaUBKTNV-1" source="zLzfCKwRgQz-2UD7bMT8-0" target="zLzfCKwRgQz-2UD7bMT8-38">
          <mxGeometry relative="1" as="geometry">
            <Array as="points">
              <mxPoint x="760" y="955" />
            </Array>
          </mxGeometry>
        </mxCell>
        <mxCell id="zLzfCKwRgQz-2UD7bMT8-0" value="&lt;b style=&quot;font-size: 15px;&quot;&gt;Token Id = 100 (Owner = A member)&lt;/b&gt;&lt;br style=&quot;font-size: 15px;&quot;&gt;&lt;b style=&quot;font-size: 15px;&quot;&gt;Buy Now Price = 10ETH&lt;br style=&quot;font-size: 15px;&quot;&gt;&amp;nbsp; Duration =&amp;nbsp; &amp;nbsp;10 days&lt;/b&gt;&lt;br style=&quot;font-size: 15px;&quot;&gt;&lt;b style=&quot;font-size: 15px;&quot;&gt;&amp;nbsp; &amp;nbsp; &amp;nbsp; &amp;nbsp;&amp;nbsp;&lt;/b&gt;" style="rounded=0;whiteSpace=wrap;html=1;align=center;fillColor=#ffe6cc;strokeColor=#d79b00;labelPosition=center;verticalLabelPosition=middle;verticalAlign=middle;fontSize=15;" vertex="1" parent="WIyWlLk6GJQsqaUBKTNV-1">
          <mxGeometry x="545" y="220" width="315" height="110" as="geometry" />
        </mxCell>
        <mxCell id="zLzfCKwRgQz-2UD7bMT8-1" style="edgeStyle=orthogonalEdgeStyle;rounded=0;orthogonalLoop=1;jettySize=auto;html=1;fontSize=13;" edge="1" parent="WIyWlLk6GJQsqaUBKTNV-1" source="zLzfCKwRgQz-2UD7bMT8-3" target="zLzfCKwRgQz-2UD7bMT8-0">
          <mxGeometry relative="1" as="geometry" />
        </mxCell>
        <mxCell id="zLzfCKwRgQz-2UD7bMT8-3" value="Actor" style="shape=umlActor;verticalLabelPosition=bottom;verticalAlign=top;html=1;outlineConnect=0;" vertex="1" parent="WIyWlLk6GJQsqaUBKTNV-1">
          <mxGeometry x="1310" y="245" width="30" height="60" as="geometry" />
        </mxCell>
        <mxCell id="zLzfCKwRgQz-2UD7bMT8-4" value="A&amp;nbsp; member (Seller)" style="text;html=1;strokeColor=none;fillColor=none;align=center;verticalAlign=middle;whiteSpace=wrap;rounded=0;" vertex="1" parent="WIyWlLk6GJQsqaUBKTNV-1">
          <mxGeometry x="1280" y="220" width="100" height="20" as="geometry" />
        </mxCell>
        <mxCell id="zLzfCKwRgQz-2UD7bMT8-5" value="&lt;b&gt;&lt;font style=&quot;font-size: 20px;&quot;&gt;Token Info&amp;nbsp;&lt;/font&gt;&lt;/b&gt;" style="text;html=1;strokeColor=none;fillColor=none;align=center;verticalAlign=middle;whiteSpace=wrap;rounded=0;" vertex="1" parent="WIyWlLk6GJQsqaUBKTNV-1">
          <mxGeometry x="480" y="130" width="120" height="20" as="geometry" />
        </mxCell>
        <mxCell id="zLzfCKwRgQz-2UD7bMT8-6" value="&lt;span style=&quot;font-size: 20px;&quot;&gt;&lt;b&gt;Seller&lt;/b&gt;&lt;/span&gt;" style="text;html=1;strokeColor=none;fillColor=none;align=center;verticalAlign=middle;whiteSpace=wrap;rounded=0;" vertex="1" parent="WIyWlLk6GJQsqaUBKTNV-1">
          <mxGeometry x="1265" y="130" width="120" height="20" as="geometry" />
        </mxCell>
        <mxCell id="zLzfCKwRgQz-2UD7bMT8-7" value="&lt;span style=&quot;font-size: 20px;&quot;&gt;&lt;b&gt;Operation&lt;/b&gt;&lt;/span&gt;" style="text;html=1;strokeColor=none;fillColor=none;align=center;verticalAlign=middle;whiteSpace=wrap;rounded=0;" vertex="1" parent="WIyWlLk6GJQsqaUBKTNV-1">
          <mxGeometry x="970" y="130" width="120" height="20" as="geometry" />
        </mxCell>
        <mxCell id="zLzfCKwRgQz-2UD7bMT8-9" value="Need call BC api to on sale&amp;nbsp;" style="rounded=0;whiteSpace=wrap;html=1;fillColor=#dae8fc;strokeColor=#6c8ebf;" vertex="1" parent="WIyWlLk6GJQsqaUBKTNV-1">
          <mxGeometry x="975" y="330" width="120" height="60" as="geometry" />
        </mxCell>
        <mxCell id="zLzfCKwRgQz-2UD7bMT8-35" value="" style="edgeStyle=orthogonalEdgeStyle;rounded=0;orthogonalLoop=1;jettySize=auto;html=1;" edge="1" parent="WIyWlLk6GJQsqaUBKTNV-1" source="zLzfCKwRgQz-2UD7bMT8-11" target="zLzfCKwRgQz-2UD7bMT8-34">
          <mxGeometry relative="1" as="geometry" />
        </mxCell>
        <mxCell id="zLzfCKwRgQz-2UD7bMT8-11" value="&lt;b style=&quot;font-size: 15px;&quot;&gt;Token Id = 100 (Owner = A member)&lt;/b&gt;&lt;br style=&quot;font-size: 15px;&quot;&gt;&lt;b style=&quot;font-size: 15px;&quot;&gt;Buy Now Price = 10ETH&lt;br style=&quot;font-size: 15px;&quot;&gt;&amp;nbsp; Duration =&amp;nbsp; &amp;nbsp;10 days&lt;/b&gt;&lt;br style=&quot;font-size: 15px;&quot;&gt;&lt;b style=&quot;font-size: 15px;&quot;&gt;&amp;nbsp; &amp;nbsp; &amp;nbsp; &amp;nbsp;&amp;nbsp;&lt;/b&gt;" style="rounded=0;whiteSpace=wrap;html=1;align=center;fillColor=#ffe6cc;strokeColor=#d79b00;labelPosition=center;verticalLabelPosition=middle;verticalAlign=middle;fontSize=15;" vertex="1" parent="WIyWlLk6GJQsqaUBKTNV-1">
          <mxGeometry x="235" y="500" width="315" height="110" as="geometry" />
        </mxCell>
        <mxCell id="zLzfCKwRgQz-2UD7bMT8-21" style="edgeStyle=orthogonalEdgeStyle;rounded=0;orthogonalLoop=1;jettySize=auto;html=1;entryX=0.003;entryY=0.6;entryDx=0;entryDy=0;entryPerimeter=0;" edge="1" parent="WIyWlLk6GJQsqaUBKTNV-1" source="zLzfCKwRgQz-2UD7bMT8-13" target="zLzfCKwRgQz-2UD7bMT8-11">
          <mxGeometry relative="1" as="geometry" />
        </mxCell>
        <mxCell id="zLzfCKwRgQz-2UD7bMT8-13" value="Actor" style="shape=umlActor;verticalLabelPosition=bottom;verticalAlign=top;html=1;outlineConnect=0;" vertex="1" parent="WIyWlLk6GJQsqaUBKTNV-1">
          <mxGeometry x="-260" y="540" width="30" height="60" as="geometry" />
        </mxCell>
        <mxCell id="zLzfCKwRgQz-2UD7bMT8-18" value="visitor&amp;nbsp;" style="text;html=1;strokeColor=none;fillColor=none;align=center;verticalAlign=middle;whiteSpace=wrap;rounded=0;" vertex="1" parent="WIyWlLk6GJQsqaUBKTNV-1">
          <mxGeometry x="-310" y="480" width="130" height="30" as="geometry" />
        </mxCell>
        <mxCell id="zLzfCKwRgQz-2UD7bMT8-33" value="" style="edgeStyle=orthogonalEdgeStyle;rounded=0;orthogonalLoop=1;jettySize=auto;html=1;" edge="1" parent="WIyWlLk6GJQsqaUBKTNV-1" source="zLzfCKwRgQz-2UD7bMT8-29" target="zLzfCKwRgQz-2UD7bMT8-32">
          <mxGeometry relative="1" as="geometry" />
        </mxCell>
        <mxCell id="zLzfCKwRgQz-2UD7bMT8-29" value="Buy now&amp;nbsp;" style="text;html=1;strokeColor=none;fillColor=none;align=center;verticalAlign=middle;whiteSpace=wrap;rounded=0;" vertex="1" parent="WIyWlLk6GJQsqaUBKTNV-1">
          <mxGeometry x="-13.75" y="500" width="60" height="30" as="geometry" />
        </mxCell>
        <mxCell id="zLzfCKwRgQz-2UD7bMT8-30" value="&lt;span style=&quot;font-size: 20px;&quot;&gt;&lt;b&gt;Operation&lt;/b&gt;&lt;/span&gt;" style="text;html=1;strokeColor=none;fillColor=none;align=center;verticalAlign=middle;whiteSpace=wrap;rounded=0;" vertex="1" parent="WIyWlLk6GJQsqaUBKTNV-1">
          <mxGeometry x="-43.75" y="120" width="120" height="20" as="geometry" />
        </mxCell>
        <mxCell id="zLzfCKwRgQz-2UD7bMT8-32" value="Use matemask/ bitcon&amp;nbsp;&amp;nbsp;Call the smart contract,&amp;nbsp;&amp;nbsp;&lt;br&gt;member&#39;s wg wallet reveice 10ETH, and transfer token to&amp;nbsp;&lt;br&gt;vistor&#39;s wallet,&amp;nbsp;&amp;nbsp;automation&lt;span style=&quot;color: rgb(51, 51, 51); font-family: &amp;quot;Helvetica Neue&amp;quot;, Helvetica, Arial, &amp;quot;Hiragino Sans GB&amp;quot;, &amp;quot;Hiragino Sans GB W3&amp;quot;, &amp;quot;Microsoft YaHei UI&amp;quot;, &amp;quot;Microsoft YaHei&amp;quot;, sans-serif; font-size: 13px;&quot; class=&quot;client_sen_word&quot;&gt;&amp;nbsp;is done&lt;/span&gt;" style="whiteSpace=wrap;html=1;verticalAlign=top;align=left;fillColor=#dae8fc;strokeColor=#6c8ebf;" vertex="1" parent="WIyWlLk6GJQsqaUBKTNV-1">
          <mxGeometry x="-147.5" y="670" width="327.5" height="70" as="geometry" />
        </mxCell>
        <mxCell id="zLzfCKwRgQz-2UD7bMT8-34" value="&lt;b style=&quot;border-color: var(--border-color);&quot;&gt;Token Id = 100 (Owner = visitor)&lt;br&gt;&lt;/b&gt;&lt;b style=&quot;border-color: var(--border-color);&quot;&gt;10ETH in member wg wallet&amp;nbsp;&lt;br&gt;10 ETH sale price is in bc&lt;br&gt;&lt;/b&gt;" style="rounded=0;whiteSpace=wrap;html=1;align=center;fillColor=#ffe6cc;strokeColor=#d79b00;labelPosition=center;verticalLabelPosition=middle;verticalAlign=middle;fontSize=15;" vertex="1" parent="WIyWlLk6GJQsqaUBKTNV-1">
          <mxGeometry x="242.5" y="680" width="300" height="80" as="geometry" />
        </mxCell>
        <mxCell id="zLzfCKwRgQz-2UD7bMT8-50" style="edgeStyle=orthogonalEdgeStyle;rounded=0;orthogonalLoop=1;jettySize=auto;html=1;" edge="1" parent="WIyWlLk6GJQsqaUBKTNV-1" source="zLzfCKwRgQz-2UD7bMT8-38">
          <mxGeometry relative="1" as="geometry">
            <mxPoint x="400" y="1110" as="targetPoint" />
          </mxGeometry>
        </mxCell>
        <mxCell id="zLzfCKwRgQz-2UD7bMT8-38" value="&lt;b style=&quot;font-size: 15px;&quot;&gt;Token Id = 100 (Owner = A member)&lt;/b&gt;&lt;br style=&quot;font-size: 15px;&quot;&gt;&lt;b style=&quot;font-size: 15px;&quot;&gt;Buy Now Price = 10ETH&lt;br style=&quot;font-size: 15px;&quot;&gt;&amp;nbsp; Duration =&amp;nbsp; &amp;nbsp;10 days&lt;/b&gt;&lt;br style=&quot;font-size: 15px;&quot;&gt;&lt;b style=&quot;font-size: 15px;&quot;&gt;&amp;nbsp; &amp;nbsp; &amp;nbsp; &amp;nbsp;&amp;nbsp;&lt;/b&gt;" style="rounded=0;whiteSpace=wrap;html=1;align=center;fillColor=#ffe6cc;strokeColor=#d79b00;labelPosition=center;verticalLabelPosition=middle;verticalAlign=middle;fontSize=15;" vertex="1" parent="WIyWlLk6GJQsqaUBKTNV-1">
          <mxGeometry x="242.5" y="900" width="315" height="110" as="geometry" />
        </mxCell>
        <mxCell id="zLzfCKwRgQz-2UD7bMT8-47" style="edgeStyle=orthogonalEdgeStyle;rounded=0;orthogonalLoop=1;jettySize=auto;html=1;entryX=0;entryY=0.5;entryDx=0;entryDy=0;" edge="1" parent="WIyWlLk6GJQsqaUBKTNV-1" source="zLzfCKwRgQz-2UD7bMT8-42" target="zLzfCKwRgQz-2UD7bMT8-38">
          <mxGeometry relative="1" as="geometry" />
        </mxCell>
        <mxCell id="zLzfCKwRgQz-2UD7bMT8-42" value="Actor" style="shape=umlActor;verticalLabelPosition=bottom;verticalAlign=top;html=1;outlineConnect=0;" vertex="1" parent="WIyWlLk6GJQsqaUBKTNV-1">
          <mxGeometry x="-270" y="920" width="30" height="60" as="geometry" />
        </mxCell>
        <mxCell id="zLzfCKwRgQz-2UD7bMT8-43" value="B member" style="text;html=1;strokeColor=none;fillColor=none;align=center;verticalAlign=middle;whiteSpace=wrap;rounded=0;" vertex="1" parent="WIyWlLk6GJQsqaUBKTNV-1">
          <mxGeometry x="-310" y="870" width="130" height="30" as="geometry" />
        </mxCell>
        <mxCell id="zLzfCKwRgQz-2UD7bMT8-44" value="" style="edgeStyle=orthogonalEdgeStyle;rounded=0;orthogonalLoop=1;jettySize=auto;html=1;" edge="1" parent="WIyWlLk6GJQsqaUBKTNV-1" source="zLzfCKwRgQz-2UD7bMT8-45" target="zLzfCKwRgQz-2UD7bMT8-46">
          <mxGeometry relative="1" as="geometry" />
        </mxCell>
        <mxCell id="zLzfCKwRgQz-2UD7bMT8-45" value="Buy now&amp;nbsp;" style="text;html=1;strokeColor=none;fillColor=none;align=center;verticalAlign=middle;whiteSpace=wrap;rounded=0;" vertex="1" parent="WIyWlLk6GJQsqaUBKTNV-1">
          <mxGeometry x="-26.25" y="890" width="60" height="30" as="geometry" />
        </mxCell>
        <mxCell id="zLzfCKwRgQz-2UD7bMT8-46" value="transfet 10ETH to B member&#39;s wg wallet (&lt;font color=&quot;#ff1929&quot;&gt;How to transfer&lt;/font&gt;)&amp;nbsp;&lt;br&gt;call BC api to buy this token , then b member&#39;s wg reveice&amp;nbsp;&lt;br&gt;Token, And A member&#39;s wg wallet have 10 eth" style="whiteSpace=wrap;html=1;verticalAlign=top;align=left;fillColor=#dae8fc;strokeColor=#6c8ebf;" vertex="1" parent="WIyWlLk6GJQsqaUBKTNV-1">
          <mxGeometry x="-160" y="1130" width="330" height="50" as="geometry" />
        </mxCell>
        <mxCell id="zLzfCKwRgQz-2UD7bMT8-49" value="&lt;b style=&quot;border-color: var(--border-color);&quot;&gt;Token Id = 100 (Owner = B member)&lt;br&gt;&lt;/b&gt;&lt;b style=&quot;border-color: var(--border-color);&quot;&gt;10ETH in member wg wallet&lt;br&gt;&lt;b style=&quot;border-color: var(--border-color);&quot;&gt;10 ETH sale price is in bc&lt;/b&gt;&lt;br&gt;&lt;/b&gt;" style="rounded=0;whiteSpace=wrap;html=1;align=center;fillColor=#ffe6cc;strokeColor=#d79b00;labelPosition=center;verticalLabelPosition=middle;verticalAlign=middle;fontSize=15;" vertex="1" parent="WIyWlLk6GJQsqaUBKTNV-1">
          <mxGeometry x="245" y="1115" width="300" height="80" as="geometry" />
        </mxCell>
        <mxCell id="zLzfCKwRgQz-2UD7bMT8-58" style="edgeStyle=orthogonalEdgeStyle;rounded=0;orthogonalLoop=1;jettySize=auto;html=1;" edge="1" parent="WIyWlLk6GJQsqaUBKTNV-1" source="zLzfCKwRgQz-2UD7bMT8-56" target="zLzfCKwRgQz-2UD7bMT8-9">
          <mxGeometry relative="1" as="geometry" />
        </mxCell>
        <mxCell id="zLzfCKwRgQz-2UD7bMT8-56" value="On Sale (By now )" style="text;html=1;strokeColor=none;fillColor=none;align=center;verticalAlign=middle;whiteSpace=wrap;rounded=0;" vertex="1" parent="WIyWlLk6GJQsqaUBKTNV-1">
          <mxGeometry x="990" y="215" width="90" height="25" as="geometry" />
        </mxCell>
        <mxCell id="zLzfCKwRgQz-2UD7bMT8-146" style="edgeStyle=orthogonalEdgeStyle;rounded=0;orthogonalLoop=1;jettySize=auto;html=1;" edge="1" parent="WIyWlLk6GJQsqaUBKTNV-1" source="zLzfCKwRgQz-2UD7bMT8-95" target="zLzfCKwRgQz-2UD7bMT8-130">
          <mxGeometry relative="1" as="geometry" />
        </mxCell>
        <mxCell id="zLzfCKwRgQz-2UD7bMT8-95" value="&lt;b style=&quot;font-size: 15px;&quot;&gt;Token Id = 100 (Owner = A member)&lt;/b&gt;&lt;br style=&quot;font-size: 15px;&quot;&gt;&lt;b style=&quot;border-color: var(--border-color);&quot;&gt;Minimum Price&amp;nbsp;&lt;/b&gt;&lt;b style=&quot;font-size: 15px;&quot;&gt;= 10ETH&lt;br style=&quot;font-size: 15px;&quot;&gt;&amp;nbsp; Duration =&amp;nbsp; &amp;nbsp;10 days&lt;/b&gt;&lt;br style=&quot;font-size: 15px;&quot;&gt;&lt;b style=&quot;font-size: 15px;&quot;&gt;&amp;nbsp; &amp;nbsp; &amp;nbsp; &amp;nbsp;&amp;nbsp;&lt;/b&gt;" style="rounded=0;whiteSpace=wrap;html=1;align=center;fillColor=#ffe6cc;strokeColor=#d79b00;labelPosition=center;verticalLabelPosition=middle;verticalAlign=middle;fontSize=15;" vertex="1" parent="WIyWlLk6GJQsqaUBKTNV-1">
          <mxGeometry x="420" y="1665" width="315" height="110" as="geometry" />
        </mxCell>
        <mxCell id="zLzfCKwRgQz-2UD7bMT8-96" style="edgeStyle=orthogonalEdgeStyle;rounded=0;orthogonalLoop=1;jettySize=auto;html=1;fontSize=13;" edge="1" parent="WIyWlLk6GJQsqaUBKTNV-1" source="zLzfCKwRgQz-2UD7bMT8-97" target="zLzfCKwRgQz-2UD7bMT8-95">
          <mxGeometry relative="1" as="geometry" />
        </mxCell>
        <mxCell id="zLzfCKwRgQz-2UD7bMT8-97" value="Actor" style="shape=umlActor;verticalLabelPosition=bottom;verticalAlign=top;html=1;outlineConnect=0;" vertex="1" parent="WIyWlLk6GJQsqaUBKTNV-1">
          <mxGeometry x="1315" y="1690" width="30" height="60" as="geometry" />
        </mxCell>
        <mxCell id="zLzfCKwRgQz-2UD7bMT8-98" value="A&amp;nbsp; member (Seller)" style="text;html=1;strokeColor=none;fillColor=none;align=center;verticalAlign=middle;whiteSpace=wrap;rounded=0;" vertex="1" parent="WIyWlLk6GJQsqaUBKTNV-1">
          <mxGeometry x="1285" y="1665" width="100" height="20" as="geometry" />
        </mxCell>
        <mxCell id="zLzfCKwRgQz-2UD7bMT8-99" value="&lt;b&gt;&lt;font style=&quot;font-size: 20px;&quot;&gt;Token Info&amp;nbsp;&lt;/font&gt;&lt;/b&gt;" style="text;html=1;strokeColor=none;fillColor=none;align=center;verticalAlign=middle;whiteSpace=wrap;rounded=0;" vertex="1" parent="WIyWlLk6GJQsqaUBKTNV-1">
          <mxGeometry x="485" y="1575" width="120" height="20" as="geometry" />
        </mxCell>
        <mxCell id="zLzfCKwRgQz-2UD7bMT8-100" value="&lt;span style=&quot;font-size: 20px;&quot;&gt;&lt;b&gt;Seller&lt;/b&gt;&lt;/span&gt;" style="text;html=1;strokeColor=none;fillColor=none;align=center;verticalAlign=middle;whiteSpace=wrap;rounded=0;" vertex="1" parent="WIyWlLk6GJQsqaUBKTNV-1">
          <mxGeometry x="1270" y="1575" width="120" height="20" as="geometry" />
        </mxCell>
        <mxCell id="zLzfCKwRgQz-2UD7bMT8-101" value="&lt;span style=&quot;font-size: 20px;&quot;&gt;&lt;b&gt;Operation&lt;/b&gt;&lt;/span&gt;" style="text;html=1;strokeColor=none;fillColor=none;align=center;verticalAlign=middle;whiteSpace=wrap;rounded=0;" vertex="1" parent="WIyWlLk6GJQsqaUBKTNV-1">
          <mxGeometry x="975" y="1575" width="120" height="20" as="geometry" />
        </mxCell>
        <mxCell id="zLzfCKwRgQz-2UD7bMT8-102" value="Need call BC api to on sale&amp;nbsp;" style="rounded=0;whiteSpace=wrap;html=1;fillColor=#dae8fc;strokeColor=#6c8ebf;" vertex="1" parent="WIyWlLk6GJQsqaUBKTNV-1">
          <mxGeometry x="980" y="1775" width="120" height="60" as="geometry" />
        </mxCell>
        <mxCell id="zLzfCKwRgQz-2UD7bMT8-110" value="&lt;span style=&quot;font-size: 20px;&quot;&gt;&lt;b&gt;Operation&lt;/b&gt;&lt;/span&gt;" style="text;html=1;strokeColor=none;fillColor=none;align=center;verticalAlign=middle;whiteSpace=wrap;rounded=0;" vertex="1" parent="WIyWlLk6GJQsqaUBKTNV-1">
          <mxGeometry x="50" y="1565" width="120" height="20" as="geometry" />
        </mxCell>
        <mxCell id="zLzfCKwRgQz-2UD7bMT8-122" style="edgeStyle=orthogonalEdgeStyle;rounded=0;orthogonalLoop=1;jettySize=auto;html=1;" edge="1" parent="WIyWlLk6GJQsqaUBKTNV-1" source="zLzfCKwRgQz-2UD7bMT8-123" target="zLzfCKwRgQz-2UD7bMT8-102">
          <mxGeometry relative="1" as="geometry" />
        </mxCell>
        <mxCell id="zLzfCKwRgQz-2UD7bMT8-123" value="On Sale (Bid modl)" style="text;html=1;strokeColor=none;fillColor=none;align=center;verticalAlign=middle;whiteSpace=wrap;rounded=0;" vertex="1" parent="WIyWlLk6GJQsqaUBKTNV-1">
          <mxGeometry x="995" y="1660" width="90" height="25" as="geometry" />
        </mxCell>
        <mxCell id="zLzfCKwRgQz-2UD7bMT8-131" style="edgeStyle=orthogonalEdgeStyle;rounded=0;orthogonalLoop=1;jettySize=auto;html=1;" edge="1" parent="WIyWlLk6GJQsqaUBKTNV-1" source="zLzfCKwRgQz-2UD7bMT8-124" target="zLzfCKwRgQz-2UD7bMT8-130">
          <mxGeometry relative="1" as="geometry">
            <Array as="points">
              <mxPoint x="290" y="1910" />
              <mxPoint x="290" y="1960" />
            </Array>
          </mxGeometry>
        </mxCell>
        <mxCell id="zLzfCKwRgQz-2UD7bMT8-124" value="Actor" style="shape=umlActor;verticalLabelPosition=bottom;verticalAlign=top;html=1;outlineConnect=0;" vertex="1" parent="WIyWlLk6GJQsqaUBKTNV-1">
          <mxGeometry x="-110" y="1905" width="30" height="60" as="geometry" />
        </mxCell>
        <mxCell id="zLzfCKwRgQz-2UD7bMT8-129" value="vistor" style="text;html=1;strokeColor=none;fillColor=none;align=center;verticalAlign=middle;whiteSpace=wrap;rounded=0;" vertex="1" parent="WIyWlLk6GJQsqaUBKTNV-1">
          <mxGeometry x="-130" y="1835" width="60" height="30" as="geometry" />
        </mxCell>
        <mxCell id="zLzfCKwRgQz-2UD7bMT8-149" style="edgeStyle=orthogonalEdgeStyle;rounded=0;orthogonalLoop=1;jettySize=auto;html=1;" edge="1" parent="WIyWlLk6GJQsqaUBKTNV-1" source="zLzfCKwRgQz-2UD7bMT8-130" target="zLzfCKwRgQz-2UD7bMT8-148">
          <mxGeometry relative="1" as="geometry" />
        </mxCell>
        <mxCell id="zLzfCKwRgQz-2UD7bMT8-130" value="&lt;div style=&quot;&quot;&gt;&lt;b style=&quot;background-color: initial;&quot;&gt;Token Id = 100 (Owner = A member)&lt;/b&gt;&lt;/div&gt;&lt;b style=&quot;border-color: var(--border-color);&quot;&gt;&lt;div style=&quot;&quot;&gt;&lt;b style=&quot;background-color: initial; border-color: var(--border-color);&quot;&gt;Minimum Price&amp;nbsp;&lt;/b&gt;&lt;b style=&quot;background-color: initial;&quot;&gt;= 5WETH&lt;/b&gt;&lt;/div&gt;&lt;/b&gt;&lt;b style=&quot;font-size: 15px;&quot;&gt;&lt;div style=&quot;&quot;&gt;&lt;b style=&quot;background-color: initial;&quot;&gt;&amp;nbsp; Duration =&amp;nbsp; &amp;nbsp;10 days&lt;/b&gt;&lt;/div&gt;&lt;div style=&quot;text-align: left;&quot;&gt;&lt;b style=&quot;background-color: initial;&quot;&gt;Vistor :&amp;nbsp; 6&amp;nbsp; WETH&amp;nbsp;&lt;br&gt;B Member: 7 WETH&lt;/b&gt;&lt;/div&gt;&lt;/b&gt;" style="rounded=0;whiteSpace=wrap;html=1;align=center;fillColor=#ffe6cc;strokeColor=#d79b00;labelPosition=center;verticalLabelPosition=middle;verticalAlign=top;fontSize=15;" vertex="1" parent="WIyWlLk6GJQsqaUBKTNV-1">
          <mxGeometry x="375" y="1920" width="440" height="190" as="geometry" />
        </mxCell>
        <mxCell id="zLzfCKwRgQz-2UD7bMT8-137" value="" style="edgeStyle=orthogonalEdgeStyle;rounded=0;orthogonalLoop=1;jettySize=auto;html=1;" edge="1" parent="WIyWlLk6GJQsqaUBKTNV-1" source="zLzfCKwRgQz-2UD7bMT8-135" target="zLzfCKwRgQz-2UD7bMT8-136">
          <mxGeometry relative="1" as="geometry" />
        </mxCell>
        <mxCell id="zLzfCKwRgQz-2UD7bMT8-135" value="Bid" style="text;html=1;strokeColor=none;fillColor=none;align=center;verticalAlign=middle;whiteSpace=wrap;rounded=0;fontSize=23;" vertex="1" parent="WIyWlLk6GJQsqaUBKTNV-1">
          <mxGeometry x="105" y="1935" width="60" height="30" as="geometry" />
        </mxCell>
        <mxCell id="zLzfCKwRgQz-2UD7bMT8-136" value="&lt;font style=&quot;font-size: 20px;&quot;&gt;Use matemask/ bitcon&amp;nbsp;&amp;nbsp;Call the smart contract,&amp;nbsp;&amp;nbsp;&lt;br style=&quot;border-color: var(--border-color);&quot;&gt;And 6 weth are bid, and transfer into the smart contract&lt;br&gt;&lt;/font&gt;" style="whiteSpace=wrap;html=1;verticalAlign=top;align=left;fontSize=21;fillColor=#dae8fc;strokeColor=#6c8ebf;" vertex="1" parent="WIyWlLk6GJQsqaUBKTNV-1">
          <mxGeometry x="-70" y="1660" width="410" height="130" as="geometry" />
        </mxCell>
        <mxCell id="zLzfCKwRgQz-2UD7bMT8-145" style="edgeStyle=orthogonalEdgeStyle;rounded=0;orthogonalLoop=1;jettySize=auto;html=1;" edge="1" parent="WIyWlLk6GJQsqaUBKTNV-1" source="zLzfCKwRgQz-2UD7bMT8-138" target="zLzfCKwRgQz-2UD7bMT8-130">
          <mxGeometry relative="1" as="geometry">
            <Array as="points">
              <mxPoint x="290" y="2100" />
              <mxPoint x="290" y="2015" />
            </Array>
          </mxGeometry>
        </mxCell>
        <mxCell id="zLzfCKwRgQz-2UD7bMT8-138" value="Actor" style="shape=umlActor;verticalLabelPosition=bottom;verticalAlign=top;html=1;outlineConnect=0;" vertex="1" parent="WIyWlLk6GJQsqaUBKTNV-1">
          <mxGeometry x="-110" y="2070" width="30" height="60" as="geometry" />
        </mxCell>
        <mxCell id="zLzfCKwRgQz-2UD7bMT8-139" value="B member" style="text;html=1;strokeColor=none;fillColor=none;align=center;verticalAlign=middle;whiteSpace=wrap;rounded=0;" vertex="1" parent="WIyWlLk6GJQsqaUBKTNV-1">
          <mxGeometry x="-130" y="2000" width="60" height="30" as="geometry" />
        </mxCell>
        <mxCell id="zLzfCKwRgQz-2UD7bMT8-144" value="" style="edgeStyle=orthogonalEdgeStyle;rounded=0;orthogonalLoop=1;jettySize=auto;html=1;" edge="1" parent="WIyWlLk6GJQsqaUBKTNV-1" source="zLzfCKwRgQz-2UD7bMT8-140" target="zLzfCKwRgQz-2UD7bMT8-143">
          <mxGeometry relative="1" as="geometry" />
        </mxCell>
        <mxCell id="zLzfCKwRgQz-2UD7bMT8-140" value="Bid" style="text;html=1;strokeColor=none;fillColor=none;align=center;verticalAlign=middle;whiteSpace=wrap;rounded=0;fontSize=23;" vertex="1" parent="WIyWlLk6GJQsqaUBKTNV-1">
          <mxGeometry x="100" y="2040" width="60" height="30" as="geometry" />
        </mxCell>
        <mxCell id="zLzfCKwRgQz-2UD7bMT8-143" value="transfet 7ETH to B member&#39;s wg wallet (&lt;font style=&quot;border-color: var(--border-color); text-align: left;&quot; color=&quot;#ff1929&quot;&gt;How to transfer&lt;/font&gt;&lt;span style=&quot;text-align: left;&quot;&gt;)&amp;nbsp;&lt;/span&gt;&lt;br style=&quot;border-color: var(--border-color); text-align: left;&quot;&gt;&lt;span style=&quot;text-align: left;&quot;&gt;call BC api to Bid this token with 7 weth&amp;nbsp;&lt;/span&gt;" style="whiteSpace=wrap;html=1;fillColor=#dae8fc;strokeColor=#6c8ebf;" vertex="1" parent="WIyWlLk6GJQsqaUBKTNV-1">
          <mxGeometry x="-30" y="2170" width="310" height="80" as="geometry" />
        </mxCell>
        <mxCell id="zLzfCKwRgQz-2UD7bMT8-148" value="&lt;div style=&quot;&quot;&gt;&lt;b style=&quot;background-color: initial;&quot;&gt;Token Id = 100 (Owner = B member)&lt;br&gt;Virtor refund 6 eth&amp;nbsp;&lt;br&gt;&lt;/b&gt;&lt;/div&gt;&lt;div style=&quot;&quot;&gt;&lt;b&gt;B Member&#39;s wg wallet : has token&amp;nbsp;&lt;br&gt;A member&#39;s wg wallet : has 7 ETH&amp;nbsp;&lt;/b&gt;&lt;/div&gt;&lt;b style=&quot;border-color: var(--border-color);&quot;&gt;&lt;div style=&quot;&quot;&gt;&lt;br&gt;&lt;/div&gt;&lt;/b&gt;" style="rounded=0;whiteSpace=wrap;html=1;align=center;fillColor=#ffe6cc;strokeColor=#d79b00;labelPosition=center;verticalLabelPosition=middle;verticalAlign=top;fontSize=15;" vertex="1" parent="WIyWlLk6GJQsqaUBKTNV-1">
          <mxGeometry x="375" y="2290" width="445" height="110" as="geometry" />
        </mxCell>
        <mxCell id="zLzfCKwRgQz-2UD7bMT8-154" style="edgeStyle=orthogonalEdgeStyle;rounded=0;orthogonalLoop=1;jettySize=auto;html=1;" edge="1" parent="WIyWlLk6GJQsqaUBKTNV-1" source="zLzfCKwRgQz-2UD7bMT8-152" target="zLzfCKwRgQz-2UD7bMT8-148">
          <mxGeometry relative="1" as="geometry" />
        </mxCell>
        <mxCell id="zLzfCKwRgQz-2UD7bMT8-152" value="Actor" style="shape=umlActor;verticalLabelPosition=bottom;verticalAlign=top;html=1;outlineConnect=0;" vertex="1" parent="WIyWlLk6GJQsqaUBKTNV-1">
          <mxGeometry x="1295" y="2305" width="30" height="60" as="geometry" />
        </mxCell>
        <mxCell id="zLzfCKwRgQz-2UD7bMT8-153" value="A&amp;nbsp; member (Seller)" style="text;html=1;strokeColor=none;fillColor=none;align=center;verticalAlign=middle;whiteSpace=wrap;rounded=0;" vertex="1" parent="WIyWlLk6GJQsqaUBKTNV-1">
          <mxGeometry x="1265" y="2280" width="100" height="20" as="geometry" />
        </mxCell>
        <mxCell id="zLzfCKwRgQz-2UD7bMT8-158" value="" style="edgeStyle=orthogonalEdgeStyle;rounded=0;orthogonalLoop=1;jettySize=auto;html=1;" edge="1" parent="WIyWlLk6GJQsqaUBKTNV-1" source="zLzfCKwRgQz-2UD7bMT8-156" target="zLzfCKwRgQz-2UD7bMT8-157">
          <mxGeometry relative="1" as="geometry" />
        </mxCell>
        <mxCell id="zLzfCKwRgQz-2UD7bMT8-156" value="Accept&amp;nbsp;" style="text;html=1;strokeColor=none;fillColor=none;align=center;verticalAlign=middle;whiteSpace=wrap;rounded=0;" vertex="1" parent="WIyWlLk6GJQsqaUBKTNV-1">
          <mxGeometry x="1040" y="2270" width="60" height="30" as="geometry" />
        </mxCell>
        <mxCell id="zLzfCKwRgQz-2UD7bMT8-157" value="Need call BC api to Accpet the bid&amp;nbsp;" style="whiteSpace=wrap;html=1;fillColor=#dae8fc;strokeColor=#6c8ebf;" vertex="1" parent="WIyWlLk6GJQsqaUBKTNV-1">
          <mxGeometry x="1010" y="2430" width="120" height="60" as="geometry" />
        </mxCell>
      </root>
    </mxGraphModel>
  </diagram>
</mxfile>
